<?xml version="1.0" encoding="UTF-8" standalone="no"?>
<!-- Created with Inkscape (http://www.inkscape.org/) -->
<svg
   xmlns:svg="http://www.w3.org/2000/svg"
   xmlns="http://www.w3.org/2000/svg"
   version="1.0"
   width="283.95999"
   height="277.95999"
   id="svg2">
  <defs
     id="defs4">
    <marker
       markerUnits="strokeWidth"
       refX="0"
       refY="5"
       markerWidth="4"
       markerHeight="3"
       orient="auto"
       viewBox="0 0 10 10"
       id="ArrowEnd">
      <path
         d="M 0,0 L 10,5 L 0,10 L 0,0 z "
         id="path7" />
    </marker>
    <marker
       markerUnits="strokeWidth"
       refX="10"
       refY="5"
       markerWidth="4"
       markerHeight="3"
       orient="auto"
       viewBox="0 0 10 10"
       id="ArrowStart">
      <path
         d="M 10,0 L 0,5 L 10,10 L 10,0 z "
         id="path10" />
    </marker>
  </defs>
  <g
     id="g12">
    <path
       d="M 146.052,11.808 C 146.052,10.613 145.978,9.414 145.454,8.30798 C 144.767,6.875 143.54,6.633 142.911,6.633 C 142.017,6.633 140.923,7.01898 140.31,8.414 C 139.833,9.44501 139.759,10.613 139.759,11.808 C 139.759,12.93 139.818,14.277 140.431,15.414 C 141.072,16.625 142.165,16.926 142.9,16.926 C 143.704,16.926 144.841,16.613 145.501,15.191 C 145.978,14.16 146.052,12.992 146.052,11.808 z M 142.892,16.629 C 142.298,16.629 141.396,16.254 141.118,14.808 C 140.95,13.906 140.95,12.523 140.95,11.633 C 140.95,10.672 140.95,9.67603 141.072,8.86298 C 141.361,7.07397 142.509,6.93701 142.888,6.93701 C 143.392,6.93701 144.4,7.20703 144.693,8.69897 C 144.845,9.539 144.845,10.683 144.845,11.633 C 144.845,12.762 144.845,13.785 144.677,14.75 C 144.45,16.18 143.579,16.633 142.892,16.633 L 142.892,16.629 z "
       style="fill:#000000;stroke:none"
       id="path14" />
    <path
       d="M 151.169,20.109 L 151.126,20.051"
       style="fill:none;stroke:#000000;stroke-width:0.50806701;stroke-linecap:round;stroke-linejoin:round"
       id="path16" />
    <path
       d="M 187.892,56.828 C 187.986,55.57 188.322,54.336 188.88,53.199"
       style="fill:none;stroke:#000000;stroke-width:0.50806701;stroke-linecap:round"
       id="path18" />
    <path
       d="M 187.892,56.828 C 186.634,56.922 185.4,57.258 184.263,57.816"
       style="fill:none;stroke:#000000;stroke-width:0.50806701;stroke-linecap:round"
       id="path20" />
    <path
       d="M 187.892,56.828 L 151.138,20.082"
       style="fill:none;stroke:#000000;stroke-width:0.50806701;stroke-linecap:round;stroke-linejoin:round"
       id="path22" />
    <path
       d="M 187.892,56.828 L 187.833,56.805"
       style="fill:none;stroke:#000000;stroke-width:0.50806701;stroke-linecap:round;stroke-linejoin:round"
       id="path24" />
    <path
       d="M 273.15,11.808 C 273.15,10.613 273.075,9.414 272.552,8.30798 C 271.864,6.875 270.638,6.633 270.009,6.633 C 269.114,6.633 268.021,7.01898 267.407,8.414 C 266.931,9.44501 266.857,10.613 266.857,11.808 C 266.857,12.93 266.915,14.277 267.529,15.414 C 268.169,16.625 269.263,16.926 269.997,16.926 C 270.802,16.926 271.939,16.613 272.599,15.191 C 273.075,14.16 273.15,12.992 273.15,11.808 z M 269.993,16.629 C 269.4,16.629 268.497,16.254 268.22,14.808 C 268.052,13.906 268.052,12.523 268.052,11.633 C 268.052,10.672 268.052,9.67603 268.173,8.86298 C 268.462,7.07397 269.611,6.93701 269.99,6.93701 C 270.493,6.93701 271.501,7.20703 271.794,8.69897 C 271.947,9.539 271.947,10.683 271.947,11.633 C 271.947,12.762 271.947,13.785 271.779,14.75 C 271.552,16.18 270.681,16.633 269.993,16.633 L 269.993,16.629 z "
       style="fill:#000000;stroke:none"
       id="path26" />
    <path
       d="M 191.208,62.18 C 191.208,62.137 191.181,62.031 191.044,62.031 C 191.001,62.031 190.986,62.043 190.822,62.203 L 189.775,63.32 C 189.642,63.117 188.95,62.027 187.286,62.027 C 183.943,62.027 180.564,65.308 180.564,68.754 C 180.564,71.113 182.228,72.82 184.661,72.82 C 185.322,72.82 185.997,72.687 186.536,72.469 C 187.286,72.176 187.572,71.867 187.841,71.57 C 187.974,71.937 188.364,72.484 188.517,72.484 C 188.591,72.484 188.618,72.441 188.618,72.426 C 188.646,72.398 188.798,71.836 188.872,71.527 L 189.157,70.39 C 189.216,70.14 189.29,69.89 189.349,69.64 C 189.513,68.98 189.529,68.949 190.384,68.933 C 190.458,68.933 190.622,68.918 190.622,68.613 C 190.622,68.504 190.548,68.437 190.427,68.437 C 190.083,68.437 189.204,68.48 188.861,68.48 C 188.4,68.48 187.232,68.437 186.771,68.437 C 186.638,68.437 186.458,68.437 186.458,68.758 C 186.458,68.933 186.575,68.933 186.904,68.933 C 186.915,68.933 187.349,68.933 187.697,68.961 C 188.083,69.004 188.157,69.047 188.157,69.234 C 188.157,69.363 187.997,70.019 187.845,70.558 C 187.427,72.16 185.486,72.32 184.962,72.32 C 183.529,72.32 181.958,71.48 181.958,69.226 C 181.958,68.773 182.107,66.34 183.677,64.426 C 184.482,63.426 185.935,62.527 187.415,62.527 C 188.939,62.527 189.822,63.656 189.822,65.355 C 189.822,65.941 189.779,65.953 189.779,66.101 C 189.779,66.246 189.939,66.246 190.001,66.246 C 190.193,66.246 190.193,66.219 190.267,65.953 L 191.208,62.18 z "
       style="fill:#000000;stroke:none"
       id="path28" />
    <path
       d="M 198.173,61.898 C 198.247,61.707 198.247,61.648 198.247,61.633 C 198.247,61.469 198.114,61.336 197.95,61.336 C 197.849,61.336 197.743,61.379 197.697,61.469 L 192.525,75.664 C 192.45,75.855 192.45,75.914 192.45,75.93 C 192.45,76.094 192.583,76.226 192.747,76.226 C 192.939,76.226 192.986,76.125 193.072,75.871 L 198.173,61.898 z "
       style="fill:#000000;stroke:none"
       id="path30" />
    <path
       d="M 205.861,68.609 C 205.849,68.582 205.775,68.492 205.775,68.449 C 205.775,68.39 206.829,67.508 206.978,67.39 C 207.911,66.64 208.536,66.609 208.849,66.598 L 208.849,66.14 C 208.419,66.183 208.228,66.183 207.81,66.183 C 207.279,66.183 206.357,66.156 206.15,66.14 L 206.15,66.594 C 206.431,66.605 206.579,66.769 206.579,66.961 C 206.579,67.254 206.372,67.43 206.255,67.535 L 204.161,69.332 L 204.161,62.148 L 201.982,62.305 L 201.982,62.746 C 203.04,62.746 203.161,62.851 203.161,63.582 L 203.161,71.351 C 203.161,72.023 202.997,72.023 201.982,72.023 L 201.982,72.523 C 202.474,72.512 203.177,72.48 203.611,72.48 C 204.056,72.48 204.654,72.492 205.251,72.523 L 205.251,72.023 C 204.251,72.023 204.087,72.023 204.087,71.363 L 204.087,69.844 L 205.04,69.035 C 206.189,70.598 206.818,71.426 206.818,71.691 C 206.818,71.969 206.564,72.027 206.282,72.027 L 206.282,72.527 C 206.7,72.516 207.579,72.484 207.896,72.484 C 208.325,72.484 208.759,72.496 209.193,72.527 L 209.193,72.027 C 208.646,72.027 208.318,72.027 207.755,71.246 L 205.861,68.609 z "
       style="fill:#000000;stroke:none"
       id="path32" />
    <path
       d="M 214.97,69.031 C 215.302,69.031 215.349,69.031 215.349,68.734 C 215.349,67.273 214.54,65.836 212.665,65.836 C 210.931,65.836 209.552,67.383 209.552,69.262 C 209.552,71.273 211.122,72.73 212.845,72.73 C 214.669,72.73 215.349,71.047 215.349,70.758 C 215.349,70.609 215.228,70.578 215.154,70.578 C 215.021,70.578 214.99,70.668 214.958,70.789 C 214.431,72.336 213.068,72.336 212.915,72.336 C 212.161,72.336 211.556,71.883 211.208,71.32 C 210.755,70.594 210.755,69.59 210.755,69.043 L 214.97,69.031 z M 210.751,68.73 C 210.841,66.508 212.114,66.133 212.634,66.133 C 214.197,66.133 214.349,68.148 214.349,68.73 L 210.751,68.73 z "
       style="fill:#000000;stroke:none"
       id="path34" />
    <path
       d="M 218.349,71.328 L 218.349,69.035 C 218.349,67.562 218.966,66.234 220.083,66.234 C 220.185,66.234 220.212,66.234 220.243,66.234 C 220.193,66.25 219.849,66.433 219.849,66.832 C 219.849,67.262 220.165,67.492 220.497,67.492 C 220.767,67.492 221.146,67.316 221.146,66.84 C 221.146,66.363 220.689,65.933 220.052,65.933 C 218.974,65.933 218.439,66.93 218.232,67.57 L 218.232,65.953 L 216.173,66.109 L 216.173,66.551 C 217.232,66.551 217.353,66.652 217.353,67.383 L 217.353,71.359 C 217.353,72.027 217.189,72.027 216.173,72.027 L 216.173,72.527 C 216.755,72.516 217.454,72.484 217.876,72.484 C 218.474,72.484 219.173,72.484 219.771,72.527 L 219.771,72.027 L 219.466,72.027 C 218.384,72.027 218.357,71.867 218.357,71.328 L 218.349,71.328 z "
       style="fill:#000000;stroke:none"
       id="path36" />
    <path
       d="M 229.638,66.629 L 230.919,66.629 C 231.216,66.629 231.364,66.629 231.364,66.308 C 231.364,66.133 231.216,66.133 230.962,66.133 L 229.724,66.133 C 229.884,65.258 229.872,65.289 230.036,64.414 C 230.095,64.098 230.302,63.027 230.392,62.848 C 230.525,62.562 230.779,62.336 231.091,62.336 C 231.15,62.336 231.536,62.336 231.822,62.633 C 231.189,62.691 231.044,63.199 231.044,63.418 C 231.044,63.754 231.318,63.926 231.607,63.926 C 232.001,63.926 232.443,63.605 232.443,63.043 C 232.443,62.367 231.751,62.027 231.134,62.027 C 230.622,62.027 229.677,62.297 229.224,63.777 C 229.134,64.09 229.091,64.238 228.728,66.125 L 227.693,66.125 C 227.407,66.125 227.243,66.125 227.243,66.43 C 227.243,66.621 227.376,66.621 227.661,66.621 L 228.654,66.621 L 227.525,72.512 C 227.255,73.957 227.001,75.316 226.216,75.316 C 226.157,75.316 225.782,75.316 225.493,75.019 C 226.208,74.976 226.345,74.453 226.345,74.234 C 226.345,73.898 226.072,73.726 225.782,73.726 C 225.388,73.726 224.947,74.047 224.947,74.609 C 224.947,75.269 225.603,75.625 226.212,75.625 C 227.032,75.625 227.63,74.75 227.896,74.183 C 228.372,73.25 228.716,71.449 228.732,71.344 L 229.638,66.629 z "
       style="fill:#000000;stroke:none"
       id="path38" />
    <path
       d="M 197.45,79.84 C 197.45,79.465 197.298,79.433 197.251,79.433 C 197.075,79.433 197.052,79.719 197.052,79.867 C 197.009,80.64 196.458,81.531 195.482,81.531 C 194.818,81.531 194.298,81.109 193.767,80.625 C 193.091,80.004 192.482,79.433 191.681,79.433 C 190.466,79.433 189.759,80.691 189.759,81.824 C 189.759,82.23 189.947,82.23 189.958,82.23 C 190.029,82.23 190.146,82.168 190.157,81.871 C 190.197,80.863 190.861,80.133 191.724,80.133 C 192.388,80.133 192.907,80.555 193.439,81.039 C 194.114,81.66 194.724,82.23 195.529,82.23 C 196.743,82.23 197.45,80.973 197.45,79.84 z "
       style="fill:#000000;stroke:none"
       id="path40" />
    <path
       d="M 197.052,83.23 C 197.208,83.23 197.447,83.23 197.447,82.976 C 197.447,82.734 197.197,82.734 197.06,82.734 L 190.138,82.734 C 190.005,82.734 189.751,82.734 189.751,82.976 C 189.751,83.23 189.99,83.23 190.146,83.23 L 197.052,83.23 z M 197.064,85.531 C 197.197,85.531 197.45,85.531 197.45,85.289 C 197.45,85.035 197.212,85.035 197.056,85.035 L 190.154,85.035 C 189.997,85.035 189.759,85.035 189.759,85.289 C 189.759,85.531 190.009,85.531 190.146,85.531 L 197.064,85.531 z "
       style="fill:#000000;stroke:none"
       id="path42" />
    <path
       d="M 203.857,79.523 C 203.857,79.223 203.607,78.93 203.251,78.93 C 202.939,78.93 202.657,79.18 202.657,79.523 C 202.657,79.898 202.958,80.125 203.251,80.125 C 203.583,80.125 203.857,79.867 203.857,79.523 z M 202.267,81.488 L 202.267,81.871 C 202.95,81.871 203.048,81.933 203.048,82.445 L 203.048,85.172 C 203.048,85.621 202.943,85.621 202.236,85.621 L 202.236,86.019 C 202.255,86.019 202.986,85.98 203.404,85.98 C 203.767,85.98 204.146,85.988 204.509,86.019 L 204.509,85.621 C 203.943,85.621 203.845,85.621 203.845,85.183 L 203.845,81.371 L 202.267,81.488 z "
       style="fill:#000000;stroke:none"
       id="path44" />
    <path
       d="M 213.65,82.863 C 213.65,81.965 213.2,81.433 212.083,81.433 C 211.259,81.433 210.693,81.875 210.411,82.39 C 210.204,81.66 209.638,81.433 208.876,81.433 C 208.021,81.433 207.466,81.894 207.173,82.433 L 207.165,82.433 L 207.165,81.433 L 205.63,81.547 L 205.63,81.918 C 206.372,81.918 206.462,81.988 206.462,82.496 L 206.462,85.18 C 206.462,85.625 206.353,85.625 205.63,85.625 L 205.63,86.023 C 205.65,86.023 206.38,85.984 206.822,85.984 C 207.208,85.984 207.927,86.012 208.021,86.023 L 208.021,85.625 C 207.364,85.625 207.263,85.625 207.263,85.183 L 207.263,83.324 C 207.263,82.238 208.134,81.734 208.829,81.734 C 209.564,81.734 209.657,82.301 209.657,82.828 L 209.657,85.183 C 209.657,85.625 209.548,85.625 208.837,85.625 L 208.837,86.023 C 208.857,86.023 209.591,85.984 210.029,85.984 C 210.415,85.984 211.134,86.012 211.228,86.023 L 211.228,85.625 C 210.56,85.625 210.458,85.625 210.458,85.183 L 210.458,83.324 C 210.458,82.238 211.329,81.734 212.025,81.734 C 212.759,81.734 212.853,82.301 212.853,82.828 L 212.853,85.183 C 212.853,85.625 212.747,85.625 212.044,85.625 L 212.044,86.023 C 212.064,86.023 212.794,85.984 213.236,85.984 C 213.622,85.984 214.341,86.012 214.435,86.023 L 214.435,85.625 C 213.759,85.625 213.654,85.625 213.654,85.18 L 213.65,82.863 z "
       style="fill:#000000;stroke:none"
       id="path46" />
    <path
       d="M 221.216,81.828 L 222.236,81.828 C 222.443,81.828 222.575,81.828 222.575,81.648 C 222.575,81.535 222.439,81.535 222.251,81.535 L 221.282,81.535 C 221.521,80.191 221.603,79.699 221.689,79.394 C 221.74,79.164 221.97,78.941 222.22,78.941 C 222.228,78.941 222.513,78.941 222.708,79.14 C 222.279,79.281 222.247,79.672 222.247,79.738 C 222.247,79.976 222.419,80.137 222.657,80.137 C 222.935,80.137 223.243,79.879 223.243,79.445 C 223.243,78.926 222.736,78.64 222.208,78.64 C 221.755,78.64 221.247,78.906 220.966,79.437 C 220.763,79.828 220.677,80.305 220.458,81.539 L 219.642,81.539 C 219.439,81.539 219.302,81.539 219.302,81.719 C 219.302,81.832 219.435,81.832 219.622,81.832 L 220.388,81.832 C 220.38,81.894 219.728,85.676 219.478,86.801 C 219.427,87.031 219.251,87.828 218.755,87.828 C 218.747,87.828 218.482,87.828 218.275,87.73 C 218.72,87.59 218.755,87.199 218.755,87.133 C 218.755,86.894 218.583,86.734 218.345,86.734 C 218.068,86.734 217.759,86.976 217.759,87.379 C 217.759,87.855 218.24,88.129 218.759,88.129 C 219.423,88.129 219.88,87.437 220.005,87.207 C 220.38,86.504 220.618,85.211 220.638,85.082 L 221.216,81.828 z "
       style="fill:#000000;stroke:none"
       id="path48" />
    <path
       d="M 225.091,56.828 L 225.091,56.828"
       style="fill:none;stroke:#000000;stroke-width:0.50806701;stroke-linecap:round;stroke-linejoin:round"
       id="path50" />
    <path
       d="M 261.81,20.109 C 260.552,20.016 259.318,19.68 258.181,19.121"
       style="fill:none;stroke:#000000;stroke-width:0.50806701;stroke-linecap:round"
       id="path52" />
    <path
       d="M 261.81,20.109 C 261.904,21.367 262.24,22.601 262.798,23.738"
       style="fill:none;stroke:#000000;stroke-width:0.50806701;stroke-linecap:round"
       id="path54" />
    <path
       d="M 261.81,20.109 L 225.072,56.848"
       style="fill:none;stroke:#000000;stroke-width:0.50806701;stroke-linecap:round;stroke-linejoin:round"
       id="path56" />
    <path
       d="M 261.81,20.109 L 261.81,20.109"
       style="fill:none;stroke:#000000;stroke-width:0.50806701;stroke-linecap:round;stroke-linejoin:round"
       id="path58" />
    <path
       d="M 225.091,94.031 L 225.032,94.008"
       style="fill:none;stroke:#000000;stroke-width:0.50806701;stroke-linecap:round;stroke-linejoin:round"
       id="path60" />
    <path
       d="M 243.982,100.461 C 243.88,100.793 243.552,101.555 243.552,101.844 C 243.552,102.258 243.872,102.726 244.568,102.726 C 245.032,102.726 245.56,102.539 245.986,102.195 C 246.564,101.719 246.657,101.152 246.657,101.133 C 246.657,101 246.525,101 246.497,101 C 246.368,101 246.345,101.039 246.306,101.195 C 246.052,101.949 245.247,102.426 244.626,102.426 C 244.486,102.426 244.353,102.398 244.353,102.062 C 244.353,101.992 244.353,101.836 244.47,101.523 C 245.001,100.027 245.353,98.406 245.353,98.363 C 245.353,98.18 245.208,98.031 245.005,98.031 C 244.81,98.031 244.638,98.176 244.575,98.301 C 244.505,98.496 244.411,98.996 244.349,99.195 C 244.29,99.359 244.177,99.808 244.122,99.976 L 243.982,100.461 z "
       style="fill:#000000;stroke:none"
       id="path62" />
    <path
       d="M 260.49,129.43 C 260.583,128.172 260.919,126.937 261.478,125.801"
       style="fill:none;stroke:#000000;stroke-width:0.50806701;stroke-linecap:round"
       id="path64" />
    <path
       d="M 260.49,129.43 C 259.232,129.523 257.997,129.859 256.861,130.418"
       style="fill:none;stroke:#000000;stroke-width:0.50806701;stroke-linecap:round"
       id="path66" />
    <path
       d="M 260.49,129.43 L 225.095,94.062"
       style="fill:none;stroke:#000000;stroke-width:0.50806701;stroke-linecap:round;stroke-linejoin:round"
       id="path68" />
    <path
       d="M 260.49,129.43 L 260.431,129.387"
       style="fill:none;stroke:#000000;stroke-width:0.50806701;stroke-linecap:round;stroke-linejoin:round"
       id="path70" />
    <path
       d="M 148.407,133.68 C 148.407,133.637 148.38,133.531 148.243,133.531 C 148.2,133.531 148.185,133.543 148.021,133.703 L 146.974,134.82 C 146.841,134.617 146.15,133.527 144.486,133.527 C 141.142,133.527 137.763,136.808 137.763,140.254 C 137.763,142.613 139.427,144.32 141.861,144.32 C 142.521,144.32 143.197,144.187 143.736,143.969 C 144.486,143.676 144.771,143.367 145.04,143.07 C 145.173,143.437 145.564,143.984 145.716,143.984 C 145.79,143.984 145.818,143.941 145.818,143.926 C 145.845,143.898 145.997,143.336 146.072,143.027 L 146.357,141.89 C 146.415,141.64 146.49,141.39 146.548,141.14 C 146.712,140.48 146.728,140.449 147.583,140.433 C 147.657,140.433 147.822,140.418 147.822,140.113 C 147.822,140.004 147.747,139.937 147.626,139.937 C 147.282,139.937 146.404,139.98 146.06,139.98 C 145.599,139.98 144.431,139.937 143.97,139.937 C 143.837,139.937 143.657,139.937 143.657,140.258 C 143.657,140.433 143.775,140.433 144.103,140.433 C 144.114,140.433 144.548,140.433 144.896,140.461 C 145.282,140.504 145.357,140.547 145.357,140.734 C 145.357,140.863 145.197,141.519 145.044,142.058 C 144.626,143.66 142.685,143.82 142.161,143.82 C 140.728,143.82 139.157,142.98 139.157,140.726 C 139.157,140.273 139.306,137.84 140.876,135.926 C 141.681,134.926 143.134,134.027 144.614,134.027 C 146.138,134.027 147.021,135.156 147.021,136.855 C 147.021,137.441 146.978,137.453 146.978,137.601 C 146.978,137.746 147.138,137.746 147.2,137.746 C 147.392,137.746 147.392,137.719 147.466,137.453 L 148.407,133.68 z "
       style="fill:#000000;stroke:none"
       id="path72" />
    <path
       d="M 153.208,138.91 L 153.208,138.91"
       style="fill:none;stroke:#000000;stroke-width:0.50806701;stroke-linecap:round;stroke-linejoin:round"
       id="path74" />
    <path
       d="M 207.314,128.23 L 208.333,128.23 C 208.54,128.23 208.673,128.23 208.673,128.051 C 208.673,127.937 208.536,127.937 208.349,127.937 L 207.38,127.937 C 207.618,126.594 207.7,126.101 207.786,125.797 C 207.837,125.566 208.068,125.344 208.318,125.344 C 208.325,125.344 208.611,125.344 208.806,125.543 C 208.376,125.683 208.345,126.074 208.345,126.14 C 208.345,126.379 208.517,126.539 208.755,126.539 C 209.032,126.539 209.341,126.281 209.341,125.848 C 209.341,125.328 208.833,125.043 208.306,125.043 C 207.853,125.043 207.345,125.308 207.064,125.84 C 206.861,126.23 206.775,126.707 206.556,127.941 L 205.74,127.941 C 205.536,127.941 205.4,127.941 205.4,128.121 C 205.4,128.234 205.532,128.234 205.72,128.234 L 206.486,128.234 C 206.478,128.297 205.825,132.078 205.575,133.203 C 205.525,133.433 205.349,134.23 204.853,134.23 C 204.845,134.23 204.579,134.23 204.372,134.133 C 204.818,133.992 204.853,133.601 204.853,133.535 C 204.853,133.297 204.681,133.137 204.443,133.137 C 204.165,133.137 203.857,133.379 203.857,133.781 C 203.857,134.258 204.337,134.531 204.857,134.531 C 205.521,134.531 205.978,133.84 206.103,133.609 C 206.478,132.906 206.716,131.613 206.736,131.484 L 207.314,128.23 z "
       style="fill:#000000;stroke:none"
       id="path76" />
    <path
       d="M 258.689,138.91 C 257.868,137.949 257.232,136.84 256.822,135.64"
       style="fill:none;stroke:#000000;stroke-width:0.50806701;stroke-linecap:round"
       id="path78" />
    <path
       d="M 258.689,138.91 C 257.868,139.871 257.232,140.98 256.822,142.18"
       style="fill:none;stroke:#000000;stroke-width:0.50806701;stroke-linecap:round"
       id="path80" />
    <path
       d="M 258.689,138.91 L 153.24,138.91"
       style="fill:none;stroke:#000000;stroke-width:0.50806701;stroke-linecap:round;stroke-linejoin:round"
       id="path82" />
    <path
       d="M 258.689,138.91 L 258.689,138.91"
       style="fill:none;stroke:#000000;stroke-width:0.50806701;stroke-linecap:round;stroke-linejoin:round"
       id="path84" />
    <path
       d="M 152.49,129.43 L 152.49,129.43"
       style="fill:none;stroke:#000000;stroke-width:0.50806701;stroke-linecap:round;stroke-linejoin:round"
       id="path86" />
    <path
       d="M 166.103,98.828 L 167.345,98.828 C 167.185,99.453 166.95,100.406 166.95,101.23 C 166.95,101.648 167.001,101.93 167.068,102.16 C 167.236,102.68 167.376,102.723 167.548,102.723 C 167.767,102.723 168.017,102.504 168.017,102.254 C 168.017,102.172 167.997,102.129 167.935,102.027 C 167.74,101.64 167.548,101.047 167.548,100.187 C 167.548,99.992 167.548,99.574 167.693,98.832 L 169.009,98.832 C 169.197,98.832 169.282,98.832 169.396,98.754 C 169.54,98.652 169.575,98.488 169.575,98.437 C 169.575,98.14 169.306,98.14 169.126,98.14 L 165.185,98.14 C 164.759,98.14 164.466,98.234 163.993,98.668 C 163.724,98.906 163.314,99.469 163.314,99.562 C 163.314,99.687 163.447,99.687 163.49,99.687 C 163.603,99.687 163.614,99.668 163.677,99.574 C 164.208,98.84 164.857,98.84 165.087,98.84 L 165.724,98.84 C 165.404,99.988 164.837,101.223 164.525,101.848 C 164.462,101.98 164.357,102.199 164.329,102.242 C 164.322,102.281 164.298,102.324 164.298,102.398 C 164.298,102.562 164.423,102.73 164.661,102.73 C 165.079,102.73 165.193,102.262 165.443,101.32 L 166.103,98.828 z "
       style="fill:#000000;stroke:none"
       id="path88" />
    <path
       d="M 187.892,94.031 C 186.634,93.937 185.4,93.601 184.263,93.043"
       style="fill:none;stroke:#000000;stroke-width:0.50806701;stroke-linecap:round"
       id="path90" />
    <path
       d="M 187.892,94.031 C 187.986,95.289 188.322,96.523 188.88,97.66"
       style="fill:none;stroke:#000000;stroke-width:0.50806701;stroke-linecap:round"
       id="path92" />
    <path
       d="M 187.892,94.031 L 152.525,129.398"
       style="fill:none;stroke:#000000;stroke-width:0.50806701;stroke-linecap:round;stroke-linejoin:round"
       id="path94" />
    <path
       d="M 187.892,94.031 L 187.892,94.031"
       style="fill:none;stroke:#000000;stroke-width:0.50806701;stroke-linecap:round;stroke-linejoin:round"
       id="path96" />
    <path
       d="M 274.654,135.012 C 274.786,134.48 274.814,134.332 275.907,134.332 C 276.294,134.332 276.415,134.332 276.415,134.012 C 276.415,133.836 276.255,133.836 276.208,133.836 C 275.79,133.836 274.716,133.879 274.298,133.879 C 273.864,133.879 272.806,133.836 272.372,133.836 C 272.255,133.836 272.091,133.836 272.091,134.156 C 272.091,134.332 272.224,134.332 272.509,134.332 C 272.536,134.332 272.822,134.332 273.075,134.359 C 273.341,134.387 273.478,134.402 273.478,134.59 C 273.478,134.644 273.466,134.676 273.419,134.863 L 272.525,138.422 L 267.97,138.422 L 268.849,134.996 C 268.982,134.473 269.025,134.324 270.103,134.324 C 270.49,134.324 270.611,134.324 270.611,134.004 C 270.611,133.828 270.45,133.828 270.404,133.828 C 269.986,133.828 268.911,133.871 268.493,133.871 C 268.06,133.871 267.001,133.828 266.568,133.828 C 266.45,133.828 266.286,133.828 266.286,134.148 C 266.286,134.324 266.419,134.324 266.704,134.324 C 266.732,134.324 267.017,134.324 267.271,134.351 C 267.536,134.379 267.673,134.394 267.673,134.586 C 267.673,134.644 267.661,134.687 267.614,134.867 L 265.614,142.82 C 265.466,143.394 265.439,143.516 264.255,143.516 C 263.99,143.516 263.853,143.516 263.853,143.836 C 263.853,144.012 264.029,144.012 264.06,144.012 C 264.478,144.012 265.536,143.969 265.954,143.969 C 266.267,143.969 266.595,143.98 266.907,143.98 C 267.236,143.98 267.564,144.008 267.876,144.008 C 267.993,144.008 268.173,144.008 268.173,143.687 C 268.173,143.512 268.04,143.512 267.755,143.512 C 267.204,143.512 266.786,143.512 266.786,143.246 C 266.786,143.16 266.814,143.086 266.829,142.996 L 267.845,138.918 L 272.4,138.918 C 271.775,141.387 271.431,142.801 271.372,143.023 C 271.224,143.496 270.943,143.512 270.013,143.512 C 269.79,143.512 269.657,143.512 269.657,143.832 C 269.657,144.008 269.833,144.008 269.864,144.008 C 270.282,144.008 271.341,143.965 271.759,143.965 C 272.072,143.965 272.4,143.976 272.712,143.976 C 273.04,143.976 273.368,144.004 273.681,144.004 C 273.798,144.004 273.978,144.004 273.978,143.683 C 273.978,143.508 273.845,143.508 273.56,143.508 C 273.009,143.508 272.591,143.508 272.591,143.242 C 272.591,143.156 272.618,143.082 272.634,142.992 L 274.654,135.012 z "
       style="fill:#000000;stroke:none"
       id="path98" />
    <path
       d="M 67.958,202.308 C 67.947,202.281 67.872,202.191 67.872,202.148 C 67.872,202.09 68.927,201.207 69.075,201.09 C 70.009,200.34 70.634,200.308 70.947,200.297 L 70.947,199.84 C 70.517,199.883 70.325,199.883 69.907,199.883 C 69.376,199.883 68.454,199.855 68.247,199.84 L 68.247,200.293 C 68.529,200.305 68.677,200.469 68.677,200.66 C 68.677,200.953 68.47,201.129 68.353,201.234 L 66.259,203.031 L 66.259,195.848 L 64.079,196.004 L 64.079,196.445 C 65.138,196.445 65.259,196.551 65.259,197.281 L 65.259,205.051 C 65.259,205.723 65.095,205.723 64.079,205.723 L 64.079,206.223 C 64.572,206.211 65.275,206.18 65.708,206.18 C 66.154,206.18 66.751,206.191 67.349,206.223 L 67.349,205.723 C 66.349,205.723 66.185,205.723 66.185,205.062 L 66.185,203.543 L 67.138,202.734 C 68.286,204.297 68.915,205.125 68.915,205.39 C 68.915,205.668 68.661,205.726 68.38,205.726 L 68.38,206.226 C 68.798,206.215 69.677,206.183 69.993,206.183 C 70.423,206.183 70.857,206.195 71.29,206.226 L 71.29,205.726 C 70.743,205.726 70.415,205.726 69.853,204.945 L 67.958,202.308 z "
       style="fill:#000000;stroke:none"
       id="path100" />
    <path
       d="M 77.072,202.73 C 77.404,202.73 77.45,202.73 77.45,202.433 C 77.45,200.973 76.642,199.535 74.767,199.535 C 73.032,199.535 71.654,201.082 71.654,202.961 C 71.654,204.973 73.224,206.43 74.947,206.43 C 76.771,206.43 77.45,204.746 77.45,204.457 C 77.45,204.308 77.329,204.277 77.255,204.277 C 77.122,204.277 77.091,204.367 77.06,204.488 C 76.532,206.035 75.169,206.035 75.017,206.035 C 74.263,206.035 73.657,205.582 73.31,205.019 C 72.857,204.293 72.857,203.289 72.857,202.742 L 77.072,202.73 z M 72.849,202.43 C 72.939,200.207 74.212,199.832 74.732,199.832 C 76.294,199.832 76.447,201.848 76.447,202.43 L 72.849,202.43 z "
       style="fill:#000000;stroke:none"
       id="path102" />
    <path
       d="M 80.45,205.027 L 80.45,202.734 C 80.45,201.262 81.068,199.933 82.185,199.933 C 82.286,199.933 82.314,199.933 82.345,199.933 C 82.294,199.949 81.95,200.133 81.95,200.531 C 81.95,200.961 82.267,201.191 82.599,201.191 C 82.868,201.191 83.247,201.016 83.247,200.539 C 83.247,200.062 82.79,199.633 82.154,199.633 C 81.075,199.633 80.54,200.629 80.333,201.269 L 80.333,199.652 L 78.275,199.808 L 78.275,200.25 C 79.333,200.25 79.454,200.351 79.454,201.082 L 79.454,205.058 C 79.454,205.726 79.29,205.726 78.275,205.726 L 78.275,206.226 C 78.857,206.215 79.556,206.183 79.978,206.183 C 80.575,206.183 81.275,206.183 81.872,206.226 L 81.872,205.726 L 81.568,205.726 C 80.486,205.726 80.458,205.566 80.458,205.027 L 80.45,205.027 z "
       style="fill:#000000;stroke:none"
       id="path104" />
    <path
       d="M 91.638,200.328 L 92.919,200.328 C 93.216,200.328 93.364,200.328 93.364,200.008 C 93.364,199.832 93.216,199.832 92.962,199.832 L 91.724,199.832 C 91.884,198.957 91.872,198.988 92.036,198.113 C 92.095,197.797 92.302,196.726 92.392,196.547 C 92.525,196.262 92.779,196.035 93.091,196.035 C 93.15,196.035 93.536,196.035 93.822,196.332 C 93.189,196.39 93.044,196.898 93.044,197.117 C 93.044,197.453 93.318,197.625 93.607,197.625 C 94.001,197.625 94.443,197.305 94.443,196.742 C 94.443,196.066 93.751,195.726 93.134,195.726 C 92.622,195.726 91.677,195.996 91.224,197.476 C 91.134,197.789 91.091,197.937 90.728,199.824 L 89.693,199.824 C 89.407,199.824 89.243,199.824 89.243,200.129 C 89.243,200.32 89.376,200.32 89.661,200.32 L 90.654,200.32 L 89.525,206.211 C 89.255,207.656 89.001,209.016 88.216,209.016 C 88.157,209.016 87.782,209.016 87.493,208.719 C 88.208,208.676 88.345,208.152 88.345,207.933 C 88.345,207.598 88.072,207.426 87.782,207.426 C 87.388,207.426 86.947,207.746 86.947,208.308 C 86.947,208.969 87.603,209.324 88.212,209.324 C 89.032,209.324 89.63,208.449 89.896,207.883 C 90.372,206.949 90.716,205.148 90.732,205.043 L 91.638,200.328 z "
       style="fill:#000000;stroke:none"
       id="path106" />
    <path
       d="M 90.45,191.351 L 90.45,191.351"
       style="fill:none;stroke:#000000;stroke-width:0.50806701;stroke-linecap:round;stroke-linejoin:round"
       id="path108" />
    <path
       d="M 102.423,163.57 C 102.81,163.344 103.31,162.969 103.372,162.926 C 104.091,162.387 104.345,162.238 104.677,162.125 C 104.657,162.168 104.65,162.258 104.65,162.312 C 104.65,162.578 104.818,162.734 105.056,162.734 C 105.392,162.734 105.646,162.433 105.646,162.144 C 105.646,161.879 105.478,161.738 105.208,161.738 C 104.509,161.738 103.798,162.289 103.24,162.738 C 102.427,163.308 102.142,163.418 101.88,163.484 C 102.005,162.996 102.025,162.91 102.068,162.723 C 102.138,162.473 102.255,162.012 102.255,161.961 C 102.255,161.773 102.111,161.629 101.9,161.629 C 101.704,161.629 101.525,161.773 101.462,161.898 C 101.411,162.023 100.439,165.93 100.439,166.004 C 100.439,166.23 100.622,166.336 100.79,166.336 C 101.161,166.336 101.243,165.992 101.286,165.816 C 101.306,165.766 101.513,164.91 101.771,163.867 C 102.31,163.867 103.743,163.906 103.743,164.711 C 103.743,164.719 103.74,164.812 103.716,164.937 C 103.697,165.101 103.697,165.156 103.697,165.258 C 103.697,165.996 104.302,166.332 104.802,166.332 C 105.825,166.332 106.13,164.746 106.13,164.738 C 106.13,164.605 105.997,164.605 105.966,164.605 C 105.822,164.605 105.81,164.656 105.759,164.855 C 105.646,165.258 105.372,166.035 104.841,166.035 C 104.56,166.035 104.478,165.777 104.478,165.496 C 104.478,165.32 104.478,165.301 104.521,165.027 C 104.54,164.914 104.552,164.808 104.552,164.683 C 104.552,163.582 102.743,163.582 102.427,163.582 L 102.423,163.57 z "
       style="fill:#000000;stroke:none"
       id="path110" />
    <path
       d="M 133.29,148.512 C 132.032,148.418 130.798,148.082 129.661,147.523"
       style="fill:none;stroke:#000000;stroke-width:0.50806701;stroke-linecap:round"
       id="path112" />
    <path
       d="M 133.29,148.512 C 133.384,149.769 133.72,151.004 134.279,152.14"
       style="fill:none;stroke:#000000;stroke-width:0.50806701;stroke-linecap:round"
       id="path114" />
    <path
       d="M 133.29,148.512 L 90.45,191.351"
       style="fill:none;stroke:#000000;stroke-width:0.50806701;stroke-linecap:round;stroke-linejoin:round"
       id="path116" />
    <path
       d="M 133.29,148.512 L 133.29,148.512"
       style="fill:none;stroke:#000000;stroke-width:0.50806701;stroke-linecap:round;stroke-linejoin:round"
       id="path118" />
    <path
       d="M 18.95,266.109 C 18.95,264.914 18.876,263.715 18.353,262.609 C 17.665,261.176 16.439,260.933 15.81,260.933 C 14.915,260.933 13.822,261.32 13.208,262.715 C 12.732,263.746 12.657,264.914 12.657,266.109 C 12.657,267.23 12.716,268.578 13.329,269.715 C 13.97,270.926 15.064,271.226 15.798,271.226 C 16.603,271.226 17.74,270.914 18.4,269.492 C 18.876,268.461 18.95,267.293 18.95,266.109 z M 15.79,270.93 C 15.197,270.93 14.294,270.555 14.017,269.109 C 13.849,268.207 13.849,266.824 13.849,265.933 C 13.849,264.973 13.849,263.976 13.97,263.164 C 14.259,261.375 15.407,261.238 15.786,261.238 C 16.29,261.238 17.298,261.508 17.591,263 C 17.743,263.84 17.743,264.984 17.743,265.933 C 17.743,267.062 17.743,268.086 17.575,269.051 C 17.349,270.48 16.478,270.933 15.79,270.933 L 15.79,270.93 z "
       style="fill:#000000;stroke:none"
       id="path120" />
    <path
       d="M 23.97,257.828 L 23.97,257.828"
       style="fill:none;stroke:#000000;stroke-width:0.50806701;stroke-linecap:round;stroke-linejoin:round"
       id="path122" />
    <path
       d="M 68.247,213.672 C 66.99,213.578 65.755,213.242 64.618,212.683"
       style="fill:none;stroke:#000000;stroke-width:0.50806701;stroke-linecap:round"
       id="path124" />
    <path
       d="M 68.247,213.672 C 68.341,214.93 68.677,216.164 69.236,217.301"
       style="fill:none;stroke:#000000;stroke-width:0.50806701;stroke-linecap:round"
       id="path126" />
    <path
       d="M 68.247,213.672 L 24.036,257.883"
       style="fill:none;stroke:#000000;stroke-width:0.50806701;stroke-linecap:round;stroke-linejoin:round"
       id="path128" />
    <path
       d="M 68.247,213.672 L 68.247,213.672"
       style="fill:none;stroke:#000000;stroke-width:0.50806701;stroke-linecap:round;stroke-linejoin:round"
       id="path130" />
  </g>
</svg>
